<?xml version="1.0" encoding="UTF-8" standalone="no"?>
<svg
   width="500.00003"
   height="500.00003"
   viewBox="0 0 500.00003 500.00003"
   fill="none"
   stroke="currentColor"
   stroke-width="2"
   stroke-linecap="round"
   stroke-linejoin="round"
   class="icon icon-tabler icons-tabler-outline icon-tabler-music-heart"
   version="1.1"
   id="svg5"
   sodipodi:docname="icon-new.svg"
   inkscape:export-filename="icon-new.png"
   inkscape:export-xdpi="96"
   inkscape:export-ydpi="96"
   xmlns:inkscape="http://www.inkscape.org/namespaces/inkscape"
   xmlns:sodipodi="http://sodipodi.sourceforge.net/DTD/sodipodi-0.dtd"
   xmlns="http://www.w3.org/2000/svg"
   xmlns:svg="http://www.w3.org/2000/svg">
  <defs
     id="defs5" />
  <sodipodi:namedview
     id="namedview5"
     pagecolor="#ffffff"
     bordercolor="#000000"
     borderopacity="0.25"
     inkscape:showpageshadow="2"
     inkscape:pageopacity="0.0"
     inkscape:pagecheckerboard="0"
     inkscape:deskcolor="#d1d1d1">
    <inkscape:page
       x="0"
       y="0"
       width="500.00003"
       height="500.00003"
       id="page2"
       margin="0"
       bleed="0" />
  </sodipodi:namedview>
  <g
     id="g7"
     transform="matrix(12.499953,0,0,12.499953,9.492004e-4,9.492004e-4)">
    <circle
       style="opacity:0.937506;fill:#cc00ff;stroke:#333333;stroke-width:2.485;stroke-dasharray:none"
       id="path6"
       cx="20"
       cy="20"
       r="18.757576" />
    <g
       id="g6"
       transform="translate(46.876254,-41.257525)"
       style="stroke:#333333">
      <path
         d="m -39.892139,66.544315 a 3.75,3.75 0 1 0 7.5,0 3.75,3.75 0 0 0 -7.5,0"
         id="path2"
         style="fill:none;stroke:#333333;stroke-width:2.5" />
      <path
         d="m -32.392139,66.544315 v -16.25 h 12.5 v 8.75"
         id="path3"
         style="fill:none;stroke:#333333;stroke-width:2.5" />
      <path
         d="m -32.392139,55.294315 h 12.5"
         id="path4"
         style="fill:none;stroke:#333333;stroke-width:2.5" />
      <path
         d="m -21.142139,72.794315 4.1875,-4.105 a 2.67875,2.67875 0 0 0 0.0063,-3.83875 2.8025,2.8025 0 0 0 -3.91125,-0.0075 l -0.28,0.275 -0.27875,-0.275 a 2.8025,2.8025 0 0 0 -3.91,-0.0075 2.67875,2.67875 0 0 0 -0.0075,3.83875 l 4.19375,4.12"
         id="path5"
         style="fill:none;stroke:#333333;stroke-width:2.5" />
    </g>
  </g>
</svg>
